<svg xmlns="http://www.w3.org/2000/svg" viewBox="0 0 1464.46 345.34"><defs><style>.cls-1,.cls-2{font-size:317px;fill:#fff;font-family:JuliusSansOne-Regular, Julius Sans One;}.cls-1{stroke:#fff;}.cls-1,.cls-3,.cls-4{stroke-miterlimit:10;}.cls-3,.cls-4{fill:none;stroke:#d29500;stroke-width:13px;}.cls-4{stroke-linecap:round;}</style></defs><title>LogoColor</title><g id="ScritteGrandi"><text class="cls-1" transform="translate(0.5 272.33)">L</text><text class="cls-2" transform="translate(604.13 273.07)">PCUP</text></g><g id="Infinito"><path class="cls-3" d="M652.2,443.42c.68-49.82,41.08-101.77,98.61-101.77,54.46,0,98.61,45.56,98.61,101.77s-44.15,101.77-98.61,101.77a99,99,0,0,1-53.69-16.4" transform="translate(-267.2 -287.06)"/><line class="cls-4" x1="427.01" y1="240.14" x2="446.44" y2="236.98"/><line class="cls-4" x1="432.95" y1="259.32" x2="426.82" y2="240.55"/><path class="cls-3" d="M728.88,458.07" transform="translate(-267.2 -287.06)"/><path class="cls-3" d="M609.64,313.83" transform="translate(-267.2 -287.06)"/><path class="cls-3" d="M652.2,440.58c-.69,49.83-41.09,101.77-98.62,101.77-54.46,0-98.61-45.56-98.61-101.77s44.15-101.76,98.61-101.76a99.13,99.13,0,0,1,53.69,16.39" transform="translate(-267.2 -287.06)"/><line class="cls-4" x1="340.07" y1="68.34" x2="320.65" y2="71.5"/><line class="cls-4" x1="335.08" y1="49.38" x2="341.21" y2="68.14"/><path class="cls-3" d="M713.64,571.52" transform="translate(-267.2 -287.06)"/><path class="cls-3" d="M694,570.17" transform="translate(-267.2 -287.06)"/></g></svg>